<svg width="560" height="149" viewBox="0 0 560 149" fill="none" xmlns="http://www.w3.org/2000/svg">
<path d="M98.9875 65.0779C98.9875 73.541 98.3385 79.4341 97.0405 82.757C95.7425 86.08 93.6916 88.7279 90.8879 90.7009C89.0187 91.999 86.5524 92.9076 83.4891 93.4268C81.2565 93.7902 78.2191 93.972 74.3769 93.972H67.8349H29.6729V115H5.06231V35.4829H73.676C77.3105 35.4829 80.2181 35.6646 82.3987 36.028C84.5794 36.3396 86.9159 37.1703 89.4081 38.5202C93.6656 40.8048 96.4434 44.5171 97.7414 49.6573C98.5722 52.8764 98.9875 58.0166 98.9875 65.0779ZM74.4548 67.1028V62.5857C74.4548 60.9761 74.351 59.8079 74.1433 59.081C73.9356 58.3022 73.3645 57.5493 72.4299 56.8224C71.4953 56.0955 70.3531 55.6282 69.0031 55.4206C67.7051 55.2129 66.1734 55.109 64.4081 55.109H29.3614V74.5016H65.0312C65.4984 74.5016 65.8359 74.5016 66.0436 74.5016C67.7051 74.5016 69.0031 74.3977 69.9377 74.19C70.8723 73.9823 71.8069 73.4631 72.7414 72.6324C73.4164 72.0093 73.8577 71.2565 74.0654 70.3738C74.325 69.4912 74.4548 68.4008 74.4548 67.1028ZM142.822 116.074C136.54 116.074 131.201 115.749 126.807 115.098C122.412 114.479 118.864 113.193 116.162 111.24C113.46 109.255 111.491 106.292 110.254 102.354C109.017 98.4147 108.398 93.1576 108.398 86.582C108.398 80.2018 109.017 75.0911 110.254 71.25C111.491 67.4089 113.46 64.5117 116.162 62.5586C118.864 60.6055 122.412 59.3034 126.807 58.6523C131.201 58.0013 136.54 57.6758 142.822 57.6758C149.137 57.6758 154.476 58.0013 158.838 58.6523C163.232 59.3034 166.781 60.6055 169.482 62.5586C172.184 64.5117 174.154 67.4089 175.391 71.25C176.628 75.0911 177.246 80.2018 177.246 86.582C177.246 93.1576 176.628 98.4147 175.391 102.354C174.154 106.292 172.184 109.255 169.482 111.24C166.781 113.193 163.232 114.479 158.838 115.098C154.476 115.749 149.137 116.074 142.822 116.074ZM167.871 86.582C167.871 81.9271 167.627 78.1999 167.139 75.4004C166.683 72.6009 165.658 70.5013 164.062 69.1016C162.467 67.6693 159.977 66.709 156.592 66.2207C153.239 65.7324 148.649 65.4883 142.822 65.4883C137.028 65.4883 132.438 65.7324 129.053 66.2207C125.667 66.709 123.177 67.6693 121.582 69.1016C119.987 70.5013 118.945 72.6009 118.457 75.4004C118.001 78.1999 117.773 81.9271 117.773 86.582C117.773 91.3997 118.001 95.2572 118.457 98.1543C118.945 101.051 119.987 103.232 121.582 104.697C123.177 106.13 125.667 107.09 129.053 107.578C132.438 108.034 137.028 108.262 142.822 108.262C148.649 108.262 153.239 108.034 156.592 107.578C159.977 107.09 162.467 106.13 164.062 104.697C165.658 103.232 166.683 101.051 167.139 98.1543C167.627 95.2572 167.871 91.3997 167.871 86.582ZM189.16 115V58.75H198.535V66.5137C199.577 64.8535 200.618 63.4701 201.66 62.3633C202.734 61.2565 204.118 60.3776 205.811 59.7266C207.536 59.0755 209.863 58.6198 212.793 58.3594C215.723 58.0664 219.58 57.9199 224.365 57.9199V65.7812C217.92 65.7812 212.923 66.0091 209.375 66.4648C205.859 66.9206 203.337 67.7018 201.807 68.8086C200.277 69.8828 199.349 71.3802 199.023 73.3008C198.698 75.2214 198.535 77.6628 198.535 80.625V115H189.16ZM262.354 115C256.624 115 252.035 114.43 248.584 113.291C245.133 112.119 242.627 110.068 241.064 107.139C239.535 104.176 238.77 100.026 238.77 94.6875V43.3691H248.145V58.75H282.764V66.4648H248.145V94.6875C248.145 98.3333 248.47 101.051 249.121 102.842C249.805 104.632 251.156 105.804 253.174 106.357C255.225 106.911 258.285 107.188 262.354 107.188C265.967 107.188 268.799 107.074 270.85 106.846C272.933 106.618 274.463 106.016 275.439 105.039C276.416 104.03 277.035 102.386 277.295 100.107C277.555 97.8288 277.686 94.6224 277.686 90.4883H285.986C285.986 95.8919 285.645 100.221 284.961 103.477C284.31 106.732 283.122 109.189 281.396 110.85C279.704 112.51 277.311 113.617 274.219 114.17C271.159 114.723 267.204 115 262.354 115ZM309.082 115V65.8789H299.707V58.75H309.082V56.3086C309.082 50.9701 309.945 46.8685 311.67 44.0039C313.428 41.1393 316.146 39.1699 319.824 38.0957C323.535 37.0215 328.304 36.4844 334.131 36.4844H345.02V44.1016H334.082C329.427 44.1016 325.993 44.3945 323.779 44.9805C321.566 45.5664 320.117 46.7383 319.434 48.4961C318.783 50.2214 318.457 52.8255 318.457 56.3086V58.75H345.02V65.8789H318.457V115H309.082ZM384.131 116.074C377.848 116.074 372.51 115.749 368.115 115.098C363.721 114.479 360.173 113.193 357.471 111.24C354.769 109.255 352.799 106.292 351.562 102.354C350.326 98.4147 349.707 93.1576 349.707 86.582C349.707 80.2018 350.326 75.0911 351.562 71.25C352.799 67.4089 354.769 64.5117 357.471 62.5586C360.173 60.6055 363.721 59.3034 368.115 58.6523C372.51 58.0013 377.848 57.6758 384.131 57.6758C390.446 57.6758 395.785 58.0013 400.146 58.6523C404.541 59.3034 408.089 60.6055 410.791 62.5586C413.493 64.5117 415.462 67.4089 416.699 71.25C417.936 75.0911 418.555 80.2018 418.555 86.582C418.555 93.1576 417.936 98.4147 416.699 102.354C415.462 106.292 413.493 109.255 410.791 111.24C408.089 113.193 404.541 114.479 400.146 115.098C395.785 115.749 390.446 116.074 384.131 116.074ZM409.18 86.582C409.18 81.9271 408.936 78.1999 408.447 75.4004C407.992 72.6009 406.966 70.5013 405.371 69.1016C403.776 67.6693 401.286 66.709 397.9 66.2207C394.548 65.7324 389.958 65.4883 384.131 65.4883C378.337 65.4883 373.747 65.7324 370.361 66.2207C366.976 66.709 364.486 67.6693 362.891 69.1016C361.296 70.5013 360.254 72.6009 359.766 75.4004C359.31 78.1999 359.082 81.9271 359.082 86.582C359.082 91.3997 359.31 95.2572 359.766 98.1543C360.254 101.051 361.296 103.232 362.891 104.697C364.486 106.13 366.976 107.09 370.361 107.578C373.747 108.034 378.337 108.262 384.131 108.262C389.958 108.262 394.548 108.034 397.9 107.578C401.286 107.09 403.776 106.13 405.371 104.697C406.966 103.232 407.992 101.051 408.447 98.1543C408.936 95.2572 409.18 91.3997 409.18 86.582ZM432.617 115V40H441.992V115H432.617ZM457.617 115V61.875H466.992V115H457.617ZM457.617 49.375V40H466.992V49.375H457.617ZM512.354 116.074C506.071 116.074 500.732 115.749 496.338 115.098C491.943 114.479 488.395 113.193 485.693 111.24C482.992 109.255 481.022 106.292 479.785 102.354C478.548 98.4147 477.93 93.1576 477.93 86.582C477.93 80.2018 478.548 75.0911 479.785 71.25C481.022 67.4089 482.992 64.5117 485.693 62.5586C488.395 60.6055 491.943 59.3034 496.338 58.6523C500.732 58.0013 506.071 57.6758 512.354 57.6758C518.669 57.6758 524.007 58.0013 528.369 58.6523C532.764 59.3034 536.312 60.6055 539.014 62.5586C541.715 64.5117 543.685 67.4089 544.922 71.25C546.159 75.0911 546.777 80.2018 546.777 86.582C546.777 93.1576 546.159 98.4147 544.922 102.354C543.685 106.292 541.715 109.255 539.014 111.24C536.312 113.193 532.764 114.479 528.369 115.098C524.007 115.749 518.669 116.074 512.354 116.074ZM537.402 86.582C537.402 81.9271 537.158 78.1999 536.67 75.4004C536.214 72.6009 535.189 70.5013 533.594 69.1016C531.999 67.6693 529.508 66.709 526.123 66.2207C522.77 65.7324 518.18 65.4883 512.354 65.4883C506.559 65.4883 501.969 65.7324 498.584 66.2207C495.199 66.709 492.708 67.6693 491.113 69.1016C489.518 70.5013 488.477 72.6009 487.988 75.4004C487.533 78.1999 487.305 81.9271 487.305 86.582C487.305 91.3997 487.533 95.2572 487.988 98.1543C488.477 101.051 489.518 103.232 491.113 104.697C492.708 106.13 495.199 107.09 498.584 107.578C501.969 108.034 506.559 108.262 512.354 108.262C518.18 108.262 522.77 108.034 526.123 107.578C529.508 107.09 531.999 106.13 533.594 104.697C535.189 103.232 536.214 101.051 536.67 98.1543C537.158 95.2572 537.402 91.3997 537.402 86.582Z" fill="#1B1B1B"/>
<path d="M103.988 69.0779C103.988 77.541 103.339 83.4341 102.04 86.757C100.742 90.08 98.6916 92.7279 95.8879 94.7009C94.0187 95.999 91.5524 96.9076 88.4891 97.4268C86.2565 97.7902 83.2191 97.972 79.3769 97.972H72.8349H34.6729V119H10.0623V39.4829H78.676C82.3105 39.4829 85.2181 39.6646 87.3987 40.028C89.5794 40.3396 91.9159 41.1703 94.4081 42.5202C98.6656 44.8048 101.443 48.5171 102.741 53.6573C103.572 56.8764 103.988 62.0166 103.988 69.0779ZM79.4548 71.1028V66.5857C79.4548 64.9761 79.351 63.8079 79.1433 63.081C78.9356 62.3022 78.3645 61.5493 77.4299 60.8224C76.4953 60.0955 75.3531 59.6282 74.0031 59.4206C72.7051 59.2129 71.1734 59.109 69.4081 59.109H34.3614V78.5016H70.0312C70.4984 78.5016 70.8359 78.5016 71.0436 78.5016C72.7051 78.5016 74.0031 78.3977 74.9377 78.19C75.8723 77.9823 76.8069 77.4631 77.7414 76.6324C78.4164 76.0093 78.8577 75.2565 79.0654 74.3738C79.325 73.4912 79.4548 72.4008 79.4548 71.1028ZM147.822 120.074C141.54 120.074 136.201 119.749 131.807 119.098C127.412 118.479 123.864 117.193 121.162 115.24C118.46 113.255 116.491 110.292 115.254 106.354C114.017 102.415 113.398 97.1576 113.398 90.582C113.398 84.2018 114.017 79.0911 115.254 75.25C116.491 71.4089 118.46 68.5117 121.162 66.5586C123.864 64.6055 127.412 63.3034 131.807 62.6523C136.201 62.0013 141.54 61.6758 147.822 61.6758C154.137 61.6758 159.476 62.0013 163.838 62.6523C168.232 63.3034 171.781 64.6055 174.482 66.5586C177.184 68.5117 179.154 71.4089 180.391 75.25C181.628 79.0911 182.246 84.2018 182.246 90.582C182.246 97.1576 181.628 102.415 180.391 106.354C179.154 110.292 177.184 113.255 174.482 115.24C171.781 117.193 168.232 118.479 163.838 119.098C159.476 119.749 154.137 120.074 147.822 120.074ZM172.871 90.582C172.871 85.9271 172.627 82.1999 172.139 79.4004C171.683 76.6009 170.658 74.5013 169.062 73.1016C167.467 71.6693 164.977 70.709 161.592 70.2207C158.239 69.7324 153.649 69.4883 147.822 69.4883C142.028 69.4883 137.438 69.7324 134.053 70.2207C130.667 70.709 128.177 71.6693 126.582 73.1016C124.987 74.5013 123.945 76.6009 123.457 79.4004C123.001 82.1999 122.773 85.9271 122.773 90.582C122.773 95.3997 123.001 99.2572 123.457 102.154C123.945 105.051 124.987 107.232 126.582 108.697C128.177 110.13 130.667 111.09 134.053 111.578C137.438 112.034 142.028 112.262 147.822 112.262C153.649 112.262 158.239 112.034 161.592 111.578C164.977 111.09 167.467 110.13 169.062 108.697C170.658 107.232 171.683 105.051 172.139 102.154C172.627 99.2572 172.871 95.3997 172.871 90.582ZM194.16 119V62.75H203.535V70.5137C204.577 68.8535 205.618 67.4701 206.66 66.3633C207.734 65.2565 209.118 64.3776 210.811 63.7266C212.536 63.0755 214.863 62.6198 217.793 62.3594C220.723 62.0664 224.58 61.9199 229.365 61.9199V69.7812C222.92 69.7812 217.923 70.0091 214.375 70.4648C210.859 70.9206 208.337 71.7018 206.807 72.8086C205.277 73.8828 204.349 75.3802 204.023 77.3008C203.698 79.2214 203.535 81.6628 203.535 84.625V119H194.16ZM267.354 119C261.624 119 257.035 118.43 253.584 117.291C250.133 116.119 247.627 114.068 246.064 111.139C244.535 108.176 243.77 104.026 243.77 98.6875V47.3691H253.145V62.75H287.764V70.4648H253.145V98.6875C253.145 102.333 253.47 105.051 254.121 106.842C254.805 108.632 256.156 109.804 258.174 110.357C260.225 110.911 263.285 111.188 267.354 111.188C270.967 111.188 273.799 111.074 275.85 110.846C277.933 110.618 279.463 110.016 280.439 109.039C281.416 108.03 282.035 106.386 282.295 104.107C282.555 101.829 282.686 98.6224 282.686 94.4883H290.986C290.986 99.8919 290.645 104.221 289.961 107.477C289.31 110.732 288.122 113.189 286.396 114.85C284.704 116.51 282.311 117.617 279.219 118.17C276.159 118.723 272.204 119 267.354 119ZM314.082 119V69.8789H304.707V62.75H314.082V60.3086C314.082 54.9701 314.945 50.8685 316.67 48.0039C318.428 45.1393 321.146 43.1699 324.824 42.0957C328.535 41.0215 333.304 40.4844 339.131 40.4844H350.02V48.1016H339.082C334.427 48.1016 330.993 48.3945 328.779 48.9805C326.566 49.5664 325.117 50.7383 324.434 52.4961C323.783 54.2214 323.457 56.8255 323.457 60.3086V62.75H350.02V69.8789H323.457V119H314.082ZM389.131 120.074C382.848 120.074 377.51 119.749 373.115 119.098C368.721 118.479 365.173 117.193 362.471 115.24C359.769 113.255 357.799 110.292 356.562 106.354C355.326 102.415 354.707 97.1576 354.707 90.582C354.707 84.2018 355.326 79.0911 356.562 75.25C357.799 71.4089 359.769 68.5117 362.471 66.5586C365.173 64.6055 368.721 63.3034 373.115 62.6523C377.51 62.0013 382.848 61.6758 389.131 61.6758C395.446 61.6758 400.785 62.0013 405.146 62.6523C409.541 63.3034 413.089 64.6055 415.791 66.5586C418.493 68.5117 420.462 71.4089 421.699 75.25C422.936 79.0911 423.555 84.2018 423.555 90.582C423.555 97.1576 422.936 102.415 421.699 106.354C420.462 110.292 418.493 113.255 415.791 115.24C413.089 117.193 409.541 118.479 405.146 119.098C400.785 119.749 395.446 120.074 389.131 120.074ZM414.18 90.582C414.18 85.9271 413.936 82.1999 413.447 79.4004C412.992 76.6009 411.966 74.5013 410.371 73.1016C408.776 71.6693 406.286 70.709 402.9 70.2207C399.548 69.7324 394.958 69.4883 389.131 69.4883C383.337 69.4883 378.747 69.7324 375.361 70.2207C371.976 70.709 369.486 71.6693 367.891 73.1016C366.296 74.5013 365.254 76.6009 364.766 79.4004C364.31 82.1999 364.082 85.9271 364.082 90.582C364.082 95.3997 364.31 99.2572 364.766 102.154C365.254 105.051 366.296 107.232 367.891 108.697C369.486 110.13 371.976 111.09 375.361 111.578C378.747 112.034 383.337 112.262 389.131 112.262C394.958 112.262 399.548 112.034 402.9 111.578C406.286 111.09 408.776 110.13 410.371 108.697C411.966 107.232 412.992 105.051 413.447 102.154C413.936 99.2572 414.18 95.3997 414.18 90.582ZM437.617 119V44H446.992V119H437.617ZM462.617 119V65.875H471.992V119H462.617ZM462.617 53.375V44H471.992V53.375H462.617ZM517.354 120.074C511.071 120.074 505.732 119.749 501.338 119.098C496.943 118.479 493.395 117.193 490.693 115.24C487.992 113.255 486.022 110.292 484.785 106.354C483.548 102.415 482.93 97.1576 482.93 90.582C482.93 84.2018 483.548 79.0911 484.785 75.25C486.022 71.4089 487.992 68.5117 490.693 66.5586C493.395 64.6055 496.943 63.3034 501.338 62.6523C505.732 62.0013 511.071 61.6758 517.354 61.6758C523.669 61.6758 529.007 62.0013 533.369 62.6523C537.764 63.3034 541.312 64.6055 544.014 66.5586C546.715 68.5117 548.685 71.4089 549.922 75.25C551.159 79.0911 551.777 84.2018 551.777 90.582C551.777 97.1576 551.159 102.415 549.922 106.354C548.685 110.292 546.715 113.255 544.014 115.24C541.312 117.193 537.764 118.479 533.369 119.098C529.007 119.749 523.669 120.074 517.354 120.074ZM542.402 90.582C542.402 85.9271 542.158 82.1999 541.67 79.4004C541.214 76.6009 540.189 74.5013 538.594 73.1016C536.999 71.6693 534.508 70.709 531.123 70.2207C527.77 69.7324 523.18 69.4883 517.354 69.4883C511.559 69.4883 506.969 69.7324 503.584 70.2207C500.199 70.709 497.708 71.6693 496.113 73.1016C494.518 74.5013 493.477 76.6009 492.988 79.4004C492.533 82.1999 492.305 85.9271 492.305 90.582C492.305 95.3997 492.533 99.2572 492.988 102.154C493.477 105.051 494.518 107.232 496.113 108.697C497.708 110.13 500.199 111.09 503.584 111.578C506.969 112.034 511.559 112.262 517.354 112.262C523.18 112.262 527.77 112.034 531.123 111.578C534.508 111.09 536.999 110.13 538.594 108.697C540.189 107.232 541.214 105.051 541.67 102.154C542.158 99.2572 542.402 95.3997 542.402 90.582Z" fill="white"/>
<path d="M106.988 72.0779C106.988 80.541 106.339 86.4341 105.04 89.757C103.742 93.08 101.692 95.7279 98.8879 97.7009C97.0187 98.999 94.5524 99.9076 91.4891 100.427C89.2565 100.79 86.2191 100.972 82.3769 100.972H75.8349H37.6729V122H13.0623V42.4829H81.676C85.3105 42.4829 88.2181 42.6646 90.3987 43.028C92.5794 43.3396 94.9159 44.1703 97.4081 45.5202C101.666 47.8048 104.443 51.5171 105.741 56.6573C106.572 59.8764 106.988 65.0166 106.988 72.0779ZM82.4548 74.1028V69.5857C82.4548 67.9761 82.351 66.8079 82.1433 66.081C81.9356 65.3022 81.3645 64.5493 80.4299 63.8224C79.4953 63.0955 78.3531 62.6282 77.0031 62.4206C75.7051 62.2129 74.1734 62.109 72.4081 62.109H37.3614V81.5016H73.0312C73.4984 81.5016 73.8359 81.5016 74.0436 81.5016C75.7051 81.5016 77.0031 81.3977 77.9377 81.19C78.8723 80.9823 79.8069 80.4631 80.7414 79.6324C81.4164 79.0093 81.8577 78.2565 82.0654 77.3738C82.325 76.4912 82.4548 75.4008 82.4548 74.1028ZM150.822 123.074C144.54 123.074 139.201 122.749 134.807 122.098C130.412 121.479 126.864 120.193 124.162 118.24C121.46 116.255 119.491 113.292 118.254 109.354C117.017 105.415 116.398 100.158 116.398 93.582C116.398 87.2018 117.017 82.0911 118.254 78.25C119.491 74.4089 121.46 71.5117 124.162 69.5586C126.864 67.6055 130.412 66.3034 134.807 65.6523C139.201 65.0013 144.54 64.6758 150.822 64.6758C157.137 64.6758 162.476 65.0013 166.838 65.6523C171.232 66.3034 174.781 67.6055 177.482 69.5586C180.184 71.5117 182.154 74.4089 183.391 78.25C184.628 82.0911 185.246 87.2018 185.246 93.582C185.246 100.158 184.628 105.415 183.391 109.354C182.154 113.292 180.184 116.255 177.482 118.24C174.781 120.193 171.232 121.479 166.838 122.098C162.476 122.749 157.137 123.074 150.822 123.074ZM175.871 93.582C175.871 88.9271 175.627 85.1999 175.139 82.4004C174.683 79.6009 173.658 77.5013 172.062 76.1016C170.467 74.6693 167.977 73.709 164.592 73.2207C161.239 72.7324 156.649 72.4883 150.822 72.4883C145.028 72.4883 140.438 72.7324 137.053 73.2207C133.667 73.709 131.177 74.6693 129.582 76.1016C127.987 77.5013 126.945 79.6009 126.457 82.4004C126.001 85.1999 125.773 88.9271 125.773 93.582C125.773 98.3997 126.001 102.257 126.457 105.154C126.945 108.051 127.987 110.232 129.582 111.697C131.177 113.13 133.667 114.09 137.053 114.578C140.438 115.034 145.028 115.262 150.822 115.262C156.649 115.262 161.239 115.034 164.592 114.578C167.977 114.09 170.467 113.13 172.062 111.697C173.658 110.232 174.683 108.051 175.139 105.154C175.627 102.257 175.871 98.3997 175.871 93.582ZM197.16 122V65.75H206.535V73.5137C207.577 71.8535 208.618 70.4701 209.66 69.3633C210.734 68.2565 212.118 67.3776 213.811 66.7266C215.536 66.0755 217.863 65.6198 220.793 65.3594C223.723 65.0664 227.58 64.9199 232.365 64.9199V72.7812C225.92 72.7812 220.923 73.0091 217.375 73.4648C213.859 73.9206 211.337 74.7018 209.807 75.8086C208.277 76.8828 207.349 78.3802 207.023 80.3008C206.698 82.2214 206.535 84.6628 206.535 87.625V122H197.16ZM270.354 122C264.624 122 260.035 121.43 256.584 120.291C253.133 119.119 250.627 117.068 249.064 114.139C247.535 111.176 246.77 107.026 246.77 101.688V50.3691H256.145V65.75H290.764V73.4648H256.145V101.688C256.145 105.333 256.47 108.051 257.121 109.842C257.805 111.632 259.156 112.804 261.174 113.357C263.225 113.911 266.285 114.188 270.354 114.188C273.967 114.188 276.799 114.074 278.85 113.846C280.933 113.618 282.463 113.016 283.439 112.039C284.416 111.03 285.035 109.386 285.295 107.107C285.555 104.829 285.686 101.622 285.686 97.4883H293.986C293.986 102.892 293.645 107.221 292.961 110.477C292.31 113.732 291.122 116.189 289.396 117.85C287.704 119.51 285.311 120.617 282.219 121.17C279.159 121.723 275.204 122 270.354 122ZM317.082 122V72.8789H307.707V65.75H317.082V63.3086C317.082 57.9701 317.945 53.8685 319.67 51.0039C321.428 48.1393 324.146 46.1699 327.824 45.0957C331.535 44.0215 336.304 43.4844 342.131 43.4844H353.02V51.1016H342.082C337.427 51.1016 333.993 51.3945 331.779 51.9805C329.566 52.5664 328.117 53.7383 327.434 55.4961C326.783 57.2214 326.457 59.8255 326.457 63.3086V65.75H353.02V72.8789H326.457V122H317.082ZM392.131 123.074C385.848 123.074 380.51 122.749 376.115 122.098C371.721 121.479 368.173 120.193 365.471 118.24C362.769 116.255 360.799 113.292 359.562 109.354C358.326 105.415 357.707 100.158 357.707 93.582C357.707 87.2018 358.326 82.0911 359.562 78.25C360.799 74.4089 362.769 71.5117 365.471 69.5586C368.173 67.6055 371.721 66.3034 376.115 65.6523C380.51 65.0013 385.848 64.6758 392.131 64.6758C398.446 64.6758 403.785 65.0013 408.146 65.6523C412.541 66.3034 416.089 67.6055 418.791 69.5586C421.493 71.5117 423.462 74.4089 424.699 78.25C425.936 82.0911 426.555 87.2018 426.555 93.582C426.555 100.158 425.936 105.415 424.699 109.354C423.462 113.292 421.493 116.255 418.791 118.24C416.089 120.193 412.541 121.479 408.146 122.098C403.785 122.749 398.446 123.074 392.131 123.074ZM417.18 93.582C417.18 88.9271 416.936 85.1999 416.447 82.4004C415.992 79.6009 414.966 77.5013 413.371 76.1016C411.776 74.6693 409.286 73.709 405.9 73.2207C402.548 72.7324 397.958 72.4883 392.131 72.4883C386.337 72.4883 381.747 72.7324 378.361 73.2207C374.976 73.709 372.486 74.6693 370.891 76.1016C369.296 77.5013 368.254 79.6009 367.766 82.4004C367.31 85.1999 367.082 88.9271 367.082 93.582C367.082 98.3997 367.31 102.257 367.766 105.154C368.254 108.051 369.296 110.232 370.891 111.697C372.486 113.13 374.976 114.09 378.361 114.578C381.747 115.034 386.337 115.262 392.131 115.262C397.958 115.262 402.548 115.034 405.9 114.578C409.286 114.09 411.776 113.13 413.371 111.697C414.966 110.232 415.992 108.051 416.447 105.154C416.936 102.257 417.18 98.3997 417.18 93.582ZM440.617 122V47H449.992V122H440.617ZM465.617 122V68.875H474.992V122H465.617ZM465.617 56.375V47H474.992V56.375H465.617ZM520.354 123.074C514.071 123.074 508.732 122.749 504.338 122.098C499.943 121.479 496.395 120.193 493.693 118.24C490.992 116.255 489.022 113.292 487.785 109.354C486.548 105.415 485.93 100.158 485.93 93.582C485.93 87.2018 486.548 82.0911 487.785 78.25C489.022 74.4089 490.992 71.5117 493.693 69.5586C496.395 67.6055 499.943 66.3034 504.338 65.6523C508.732 65.0013 514.071 64.6758 520.354 64.6758C526.669 64.6758 532.007 65.0013 536.369 65.6523C540.764 66.3034 544.312 67.6055 547.014 69.5586C549.715 71.5117 551.685 74.4089 552.922 78.25C554.159 82.0911 554.777 87.2018 554.777 93.582C554.777 100.158 554.159 105.415 552.922 109.354C551.685 113.292 549.715 116.255 547.014 118.24C544.312 120.193 540.764 121.479 536.369 122.098C532.007 122.749 526.669 123.074 520.354 123.074ZM545.402 93.582C545.402 88.9271 545.158 85.1999 544.67 82.4004C544.214 79.6009 543.189 77.5013 541.594 76.1016C539.999 74.6693 537.508 73.709 534.123 73.2207C530.77 72.7324 526.18 72.4883 520.354 72.4883C514.559 72.4883 509.969 72.7324 506.584 73.2207C503.199 73.709 500.708 74.6693 499.113 76.1016C497.518 77.5013 496.477 79.6009 495.988 82.4004C495.533 85.1999 495.305 88.9271 495.305 93.582C495.305 98.3997 495.533 102.257 495.988 105.154C496.477 108.051 497.518 110.232 499.113 111.697C500.708 113.13 503.199 114.09 506.584 114.578C509.969 115.034 514.559 115.262 520.354 115.262C526.18 115.262 530.77 115.034 534.123 114.578C537.508 114.09 539.999 113.13 541.594 111.697C543.189 110.232 544.214 108.051 544.67 105.154C545.158 102.257 545.402 98.3997 545.402 93.582Z" fill="#1B1B1B"/>
</svg>
